<svg width="218" height="228" viewBox="0 0 218 228" fill="none" xmlns="http://www.w3.org/2000/svg">
<path d="M92.1711 139C90.1791 139 88.4859 138.271 87.0916 136.812C85.6972 135.354 85 133.583 85 131.5V96.5C85 94.4167 85.6972 92.6458 87.0916 91.1875C88.4859 89.7292 90.1791 89 92.1711 89H125.636C127.628 89 129.321 89.7292 130.715 91.1875C132.11 92.6458 132.807 94.4167 132.807 96.5V131.5C132.807 133.583 132.11 135.354 130.715 136.812C129.321 138.271 127.628 139 125.636 139H92.1711ZM92.1711 134H125.636C126.313 134 126.881 133.76 127.338 133.28C127.797 132.802 128.026 132.208 128.026 131.5V96.5C128.026 95.7917 127.797 95.1975 127.338 94.7175C126.881 94.2392 126.313 94 125.636 94H92.1711C91.4938 94 90.9257 94.2392 90.4667 94.7175C90.0094 95.1975 89.7807 95.7917 89.7807 96.5V131.5C89.7807 132.208 90.0094 132.802 90.4667 133.28C90.9257 133.76 91.4938 134 92.1711 134ZM94.5614 129L104.123 119L108.425 123.438L113.684 116.5L123.246 129H94.5614ZM99.3421 109C98.0274 109 96.9024 108.51 95.9669 107.53C95.0299 106.552 94.5614 105.375 94.5614 104C94.5614 102.625 95.0299 101.448 95.9669 100.47C96.9024 99.49 98.0274 99 99.3421 99C100.657 99 101.783 99.49 102.72 100.47C103.655 101.448 104.123 102.625 104.123 104C104.123 105.375 103.655 106.552 102.72 107.53C101.783 108.51 100.657 109 99.3421 109Z" fill="#065F46"/>
</svg>